<svg width="26" height="26" viewBox="0 0 26 26" fill="none" xmlns="http://www.w3.org/2000/svg">
<g clip-path="url(#clip0_4614_1990)">
<path d="M23.5315 0H1.87617C0.838815 0 0 0.818961 0 1.83149V23.5762C0 24.5887 0.838815 25.4126 1.87617 25.4126H23.5315C24.5688 25.4126 25.4126 24.5887 25.4126 23.5811V1.83149C25.4126 0.818961 24.5688 0 23.5315 0ZM7.5394 21.6553H3.76722V9.52477H7.5394V21.6553ZM5.65331 7.87195C4.44224 7.87195 3.46445 6.89416 3.46445 5.68806C3.46445 4.48195 4.44224 3.50416 5.65331 3.50416C6.85942 3.50416 7.83721 4.48195 7.83721 5.68806C7.83721 6.8892 6.85942 7.87195 5.65331 7.87195ZM21.6553 21.6553H17.8881V15.7588C17.8881 14.3542 17.8633 12.5425 15.9276 12.5425C13.967 12.5425 13.6692 14.0762 13.6692 15.6595V21.6553H9.90695V9.52477H13.5203V11.1825H13.5699C14.0712 10.2296 15.3022 9.222 17.1337 9.222C20.9505 9.222 21.6553 11.7335 21.6553 14.9994V21.6553Z" fill="#F4FFDE" fill-opacity="0.76"/>
</g>
<defs>
<clipPath id="clip0_4614_1990">
<rect width="25.4126" height="25.4126" fill="white"/>
</clipPath>
</defs>
</svg>
